HIERARCHY
ROOT Hips
{
	OFFSET -14.64140 90.27770 -84.91600
	CHANNELS 6 Xposition Yposition Zposition Zrotation Xrotation Yrotation
	JOINT Spine
	{
		OFFSET 0.00000 13.20850 -1.60436
		CHANNELS 3 Zrotation Xrotation Yrotation
		JOINT Spine1
		{
			OFFSET 0.00000 8.61716 0.00000
			CHANNELS 3 Zrotation Xrotation Yrotation
			JOINT Spine2
			{
				OFFSET 0.00000 8.61717 0.00000
				CHANNELS 3 Zrotation Xrotation Yrotation
				JOINT Spine3
				{
					OFFSET 0.00000 8.61717 0.00000
					CHANNELS 3 Zrotation Xrotation Yrotation
					JOINT Neck
					{
						OFFSET 0.00000 11.07920 1.10792
						CHANNELS 3 Zrotation Xrotation Yrotation
						JOINT Neck1
						{
							OFFSET 0.00000 7.08032 0.00000
							CHANNELS 3 Zrotation Xrotation Yrotation
							JOINT Head
							{
								OFFSET 0.00000 7.08031 0.00000
								CHANNELS 3 Zrotation Xrotation Yrotation
								End site
								{
									OFFSET 0.00000 0.00000 0.00000
								}
							}
						}
					}
					JOINT RightShoulder
					{
						OFFSET -0.01000 7.91373 5.19711
						CHANNELS 3 Zrotation Xrotation Yrotation
						JOINT RightArm
						{
							OFFSET -18.41580 0.00000 0.00000
							CHANNELS 3 Zrotation Xrotation Yrotation
							JOINT RightForeArm
							{
								OFFSET -29.11090 0.00000 0.00000
								CHANNELS 3 Zrotation Xrotation Yrotation
								JOINT RightHand
								{
									OFFSET -24.65040 0.00000 0.00000
									CHANNELS 3 Zrotation Xrotation Yrotation
									JOINT RightHandThumb1
									{
										OFFSET -5.35114 -0.85590 3.97906
										CHANNELS 3 Zrotation Xrotation Yrotation
										JOINT RightHandThumb2
										{
											OFFSET -4.52789 0.00000 0.00000
											CHANNELS 3 Zrotation Xrotation Yrotation
											JOINT RightHandThumb3
											{
												OFFSET -2.46976 0.00000 0.00000
												CHANNELS 3 Zrotation Xrotation Yrotation
												End site
												{
													OFFSET 0.00000 0.00000 0.00000
												}
											}
										}
									}
									JOINT RightHandIndex1
									{
										OFFSET -14.26970 0.00000 2.88139
										CHANNELS 3 Zrotation Xrotation Yrotation
										JOINT RightHandIndex2
										{
											OFFSET -5.48836 0.00000 0.00000
											CHANNELS 3 Zrotation Xrotation Yrotation
											JOINT RightHandIndex3
											{
												OFFSET -3.01859 0.00000 0.00000
												CHANNELS 3 Zrotation Xrotation Yrotation
												End site
												{
													OFFSET 0.00000 0.00000 0.00000
												}
											}
										}
									}
									JOINT RightHandMiddle1
									{
										OFFSET -14.26970 0.00000 -0.09147
										CHANNELS 3 Zrotation Xrotation Yrotation
										JOINT RightHandMiddle2
										{
											OFFSET -6.17441 0.00000 0.00000
											CHANNELS 3 Zrotation Xrotation Yrotation
											JOINT RightHandMiddle3
											{
												OFFSET -3.56743 0.00000 0.00000
												CHANNELS 3 Zrotation Xrotation Yrotation
												End site
												{
													OFFSET 0.00000 0.00000 0.00000
												}
											}
										}
									}
									JOINT RightHandRing1
									{
										OFFSET -12.69180 0.00000 -3.06433
										CHANNELS 3 Zrotation Xrotation Yrotation
										JOINT RightHandRing2
										{
											OFFSET -5.62556 0.00000 0.00000
											CHANNELS 3 Zrotation Xrotation Yrotation
											JOINT RightHandRing3
											{
												OFFSET -3.56744 0.00000 0.00000
												CHANNELS 3 Zrotation Xrotation Yrotation
												End site
												{
													OFFSET 0.00000 0.00000 0.00000
												}
											}
										}
									}
									JOINT RightHandPinky1
									{
										OFFSET -11.11390 0.00000 -6.03719
										CHANNELS 3 Zrotation Xrotation Yrotation
										JOINT RightHandPinky2
										{
											OFFSET -4.52789 0.00000 0.00000
											CHANNELS 3 Zrotation Xrotation Yrotation
											JOINT RightHandPinky3
											{
												OFFSET -2.46976 0.00000 0.00000
												CHANNELS 3 Zrotation Xrotation Yrotation
												End site
												{
													OFFSET 0.00000 0.00000 0.00000
												}
											}
										}
									}
								}
							}
						}
					}
					JOINT LeftShoulder
					{
						OFFSET 0.01000 7.91373 5.19711
						CHANNELS 3 Zrotation Xrotation Yrotation
						JOINT LeftArm
						{
							OFFSET 18.41580 0.00000 0.00000
							CHANNELS 3 Zrotation Xrotation Yrotation
							JOINT LeftForeArm
							{
								OFFSET 29.11090 0.00000 0.00000
								CHANNELS 3 Zrotation Xrotation Yrotation
								JOINT LeftHand
								{
									OFFSET 24.65040 0.00000 0.00000
									CHANNELS 3 Zrotation Xrotation Yrotation
									JOINT LeftHandThumb1
									{
										OFFSET 5.35114 -0.85590 3.97906
										CHANNELS 3 Zrotation Xrotation Yrotation
										JOINT LeftHandThumb2
										{
											OFFSET 4.52789 0.00000 0.00000
											CHANNELS 3 Zrotation Xrotation Yrotation
											JOINT LeftHandThumb3
											{
												OFFSET 2.46977 0.00000 0.00000
												CHANNELS 3 Zrotation Xrotation Yrotation
												End site
												{
													OFFSET 0.00000 0.00000 0.00000
												}
											}
										}
									}
									JOINT LeftHandIndex1
									{
										OFFSET 14.26970 0.00000 2.88139
										CHANNELS 3 Zrotation Xrotation Yrotation
										JOINT LeftHandIndex2
										{
											OFFSET 5.48836 0.00000 0.00000
											CHANNELS 3 Zrotation Xrotation Yrotation
											JOINT LeftHandIndex3
											{
												OFFSET 3.01859 0.00000 0.00000
												CHANNELS 3 Zrotation Xrotation Yrotation
												End site
												{
													OFFSET 0.00000 0.00000 0.00000
												}
											}
										}
									}
									JOINT LeftHandMiddle1
									{
										OFFSET 14.26970 0.00000 -0.09147
										CHANNELS 3 Zrotation Xrotation Yrotation
										JOINT LeftHandMiddle2
										{
											OFFSET 6.17440 0.00000 0.00000
											CHANNELS 3 Zrotation Xrotation Yrotation
											JOINT LeftHandMiddle3
											{
												OFFSET 3.56744 0.00000 0.00000
												CHANNELS 3 Zrotation Xrotation Yrotation
												End site
												{
													OFFSET 0.00000 0.00000 0.00000
												}
											}
										}
									}
									JOINT LeftHandRing1
									{
										OFFSET 12.69180 0.00000 -3.06433
										CHANNELS 3 Zrotation Xrotation Yrotation
										JOINT LeftHandRing2
										{
											OFFSET 5.62556 0.00000 0.00000
											CHANNELS 3 Zrotation Xrotation Yrotation
											JOINT LeftHandRing3
											{
												OFFSET 3.56744 0.00000 0.00000
												CHANNELS 3 Zrotation Xrotation Yrotation
												End site
												{
													OFFSET 0.00000 0.00000 0.00000
												}
											}
										}
									}
									JOINT LeftHandPinky1
									{
										OFFSET 11.11390 0.00000 -6.03719
										CHANNELS 3 Zrotation Xrotation Yrotation
										JOINT LeftHandPinky2
										{
											OFFSET 4.52789 0.00000 0.00000
											CHANNELS 3 Zrotation Xrotation Yrotation
											JOINT LeftHandPinky3
											{
												OFFSET 2.46976 0.00000 0.00000
												CHANNELS 3 Zrotation Xrotation Yrotation
												End site
												{
													OFFSET 0.00000 0.00000 0.00000
												}
											}
										}
									}
								}
							}
						}
					}
					JOINT pCube4
					{
						OFFSET 0.00000 10.91090 1.10792
						CHANNELS 3 Zrotation Xrotation Yrotation
						End site
						{
							OFFSET 0.00000 0.00000 0.00000
						}
					}
				}
			}
		}
	}
	JOINT RightUpLeg
	{
		OFFSET -9.98441 0.00000 0.00000
		CHANNELS 3 Zrotation Xrotation Yrotation
		JOINT RightLeg
		{
			OFFSET 0.00000 -42.11790 0.00000
			CHANNELS 3 Zrotation Xrotation Yrotation
			JOINT RightFoot
			{
				OFFSET 0.00000 -45.00020 -0.00001
				CHANNELS 3 Zrotation Xrotation Yrotation
				JOINT RightForeFoot
				{
					OFFSET 0.00000 -3.74820 0.00000
					CHANNELS 3 Zrotation Xrotation Yrotation
					JOINT RightToeBase
					{
						OFFSET 0.00000 0.06325 14.43120
						CHANNELS 3 Zrotation Xrotation Yrotation
						End site
						{
							OFFSET 0.00000 0.00000 0.00000
						}
					}
				}
			}
		}
	}
	JOINT LeftUpLeg
	{
		OFFSET 9.98441 0.00000 0.00000
		CHANNELS 3 Zrotation Xrotation Yrotation
		JOINT LeftLeg
		{
			OFFSET 0.00000 -42.11800 0.00000
			CHANNELS 3 Zrotation Xrotation Yrotation
			JOINT LeftFoot
			{
				OFFSET 0.00000 -45.00070 0.00000
				CHANNELS 3 Zrotation Xrotation Yrotation
				JOINT LeftForeFoot
				{
					OFFSET 0.00000 -3.74824 0.00000
					CHANNELS 3 Zrotation Xrotation Yrotation
					JOINT LeftToeBase
					{
						OFFSET 0.00000 0.06325 14.43110
						CHANNELS 3 Zrotation Xrotation Yrotation
						End site
						{
							OFFSET 0.00000 0.00000 0.00000
						}
					}
				}
			}
		}
	}
}
MOTION
Frames: 4
Frame Time: 0.050000
0.028350244206761778 -0.03537899808113685 0.02463824244871704 -0.046716484871990205 0.012772247641810631 -0.04067242159737053 -3.3870434742471627 -0.6154831906502595 -0.7723856854958464 -0.9358507247447818 3.5812673270823034 0.34511467990442996 -1.1593337593358977 -2.0407176617961995 -1.546973508383161 -0.19898410771162334 0.20949169557297787 -0.9071223499508534 -0.37059388011023364 12.115758128443675 0.9712666204070188 0.25842526702389107 0.21610748835198082 1.3502397538269726 0.041230217691575415 -14.294129087306125 0.08185516716422693 -3.4330346862733028 1.4287146410793787 -14.326488759480178 73.171715325227 26.061909309281432 3.2947045859011723 35.28681842988273 6.659268347164341 87.21256896267734 23.236623052212675 -0.2970222959479701 -3.8068938363379603 4.548846121489593 -0.10374683641058788 -1.5893726716418557 -0.02822348213227491 -0.02411615924970247 -56.27564862014899 -0.03147252518114884 0.028626905567308347 -56.19794753412648 -38.780793596687275 -0.0255099439509211 0.006962412353830077 0.03798548646411109 0.011164223682842436 -0.0077187572964819064 -0.025989243667178755 -0.028561118548976146 -0.02975270150153282 -36.69688165967125 0.006292063025550049 -0.04572857851133812 0.015147830907177208 0.045694858977534135 -0.0263018227727901 0.021502462786499275 -0.0031212608041593115 -0.0355735359456501 -19.780210674313114 0.02763677117716365 0.028962625728392942 0.039563430817714185 -0.0012220302248234184 -0.01100364423727729 0.012533485406937267 -0.030029777162050197 -0.0004159589890169891 24.102444156952412 0.004088990621189924 0.04593783475211479 28.870273971792475 0.013524234600081012 -0.031163232037699145 28.900638417067974 0.040814733522668414 0.004199579659869521 6.171606481431552 1.4929590928694743 12.438750074596996 -73.57122871030977 24.982772361609115 -8.260135034124113 -92.68657030279427 9.483419234274463 -106.74710256479928 -20.252504426277856 -1.6110536755379412 0.7323810000645045 -0.47300189524616687 0.10404238444944577 -8.134967881644513 0.020785089086159173 -0.025443587717870447 44.60509600562635 0.04690111746619525 0.025043295525348962 44.5752242879118 12.478285928544826 -0.015340759094833 -0.012896142243952457 0.019735167277006672 -0.001934426058746385 0.015195862694352049 0.03197675153976236 0.032441709093376916 0.04451370017688421 11.09458827466347 0.03497217165387232 -0.026349781869525905 0.019306256509825898 -0.03903966830685277 -0.0355269683352809 -0.025041621405880177 -0.025644633231001142 -0.03634815066115398 4.765243406531023 -0.013754561605803345 -0.039691224287321886 0.022081979901049067 -0.026371218636682195 0.02274865693544238 0.02376683548392124 -0.006432350301386939 -0.03135764249087039 -5.565091731853835 0.03155407061668767 -0.02061220386035759 -6.762510599341329 -0.033708185614255225 -0.03782528528733108 -6.691205363322241 0.0020908379283981404 0.01086989881189892 -0.0062800292273976245 -0.029209140372491872 -0.04395051094704152 8.04887276190848 3.527349618223118 -19.212675746864335 -0.027772518878634155 10.367697351442295 -0.029257839566905 -5.639265587956301 -15.644678707911556 3.2233126126136566 0.049944518826941654 -0.02877077503984905 -0.0323908219995927 0.00934961383485596 4.697700594268846 0.02334177900142045 12.504389381597127 -8.191258242002352 6.890909693282465 0.009216892411926702 46.35591206056279 0.007330490936013407 -4.290183832525402 -14.753008326631958 -3.810598232795609 -0.013134112392093876 0.037819927479040664 -0.0026682028392156984 0.02245852888735582 -10.698790170914242 -0.013615083844505556 
-0.0005278031019256109 -0.04634955899250345 0.02845892151552534 -0.03601830731692703 -0.02717835920317009 0.031518097053176125 -3.367933346023455 -0.6072803989343628 -0.8569105172995145 -0.8722570343711264 3.5991104807948573 0.39583844175805605 -1.139995185374793 -2.0577190221447035 -1.574031226367993 -0.18276906779729818 0.22868350687244748 -0.843243544277037 -0.3335330173466883 12.259918183025437 1.1626512644717153 0.23368970142362894 0.37654980312466263 1.769748929645699 -0.12024313689127454 -14.073766695488347 0.16582959478340917 -3.389621163307328 1.4672204883861872 -14.312625363296407 72.70384412553913 25.53649053351886 3.6582041475905496 36.13801162933814 5.500214375047893 90.8441827963887 22.199398142888185 -0.3122953387693824 -3.6602717537143015 4.527513453633649 -0.07754559261276767 -1.5582930094147047 -0.041231796193626054 -0.03819408245093324 -56.26232269898562 -0.016481669517453286 0.03082884776472083 -56.23700164848621 -38.74846284925495 -0.035268720506400654 0.009944478402439954 0.0058373376910114015 -0.026950897955359477 0.024790249783001362 0.03826393554365302 0.019755261785869678 0.022552555491494517 -36.66576031474638 0.0112035352074005 0.0019321686961467528 -0.025147117997412535 0.032193803792738604 0.011722770523727192 0.007168083137789307 -0.04602561299285907 -0.03193659097170739 -19.751837466301488 -0.044655476813226666 -0.0047429139781292986 0.006960171041304625 -0.0294727178743912 0.0341029898652104 0.029359019949504045 0.038997456862944604 0.030780854854255444 24.04937786448696 0.02169670975058163 0.019535269904359442 28.815535168905335 0.02611441562667008 0.04230391387201265 28.87171355523842 0.044577141873133566 0.02158993390062935 6.02707464634141 1.4595288139980935 12.37076040814068 -73.3652138863613 25.417877469220155 -8.001320764782239 -90.92304603099817 8.898950111066869 -105.6575948356944 -19.07401870445899 -0.8039558440886075 0.23746098269079374 -0.46756157684449806 0.02930656304581998 -8.138066650667248 0.023689511893140062 -0.01004823284409229 44.57719714300202 -0.027944528549408616 0.031654782174692773 44.54819321767645 12.44479000277169 0.011850123914162609 0.03850981017103825 -0.01917037488373692 0.00880471247570341 0.034411402923090945 -0.028806487582476704 -0.008881001571690339 -0.032111847159058196 11.092815350829017 -0.03083104812013792 0.0034179438056103997 0.005955712476015717 0.013838988566278845 -0.03980022185238512 -0.010797083718180014 0.008334293089652292 0.02137299594840235 4.753593432595001 0.022987205913822077 0.02889503872623439 -0.023906991912046337 -0.010752288780788538 -0.0027704087420499994 0.027400605564928567 -0.01031781064206659 0.0005110417300471813 -5.621257231947115 0.008406709956109093 -0.007989507303230468 -6.7305319718589764 0.043594800075837735 -0.04640162109099856 -6.748242021772724 0.012822706516991725 -0.0398013181146535 0.0358187623277694 0.03413834677264591 0.046379984773483415 8.033495713370769 3.459561187767209 -19.222265243796446 -0.04479099886622934 10.362405520808199 0.007274280618237143 -5.596298104409078 -15.697913171666025 3.1550477104081547 0.02507447898749714 -0.030623859304534106 -0.026355179521257353 -0.04127337902530134 4.668216793469673 -0.0045568641998043925 12.4367061784692 -8.252358684013004 6.854296790996863 -0.00794223332879535 46.34506282228856 -0.03567093893603349 -4.366135206756653 -14.754634124342935 -3.8839020532715667 -0.029644684517606552 -0.0010397305347820403 -0.0036447748061986516 0.021862504786339183 -10.765002936269784 -0.01667045510115851 
0.01385099900605197 0.038140328015789246 -0.03161598436752599 -0.04497621078549417 0.014151652880001926 -0.0022578625084404896 -3.2659586884205876 -0.6143965738148378 -0.8351954234771578 -0.9714505512995772 3.5238473912079407 0.3857502616077677 -1.164579769513447 -2.050600615210664 -1.5212675555267268 -0.1920928796403305 0.36166168779931335 -0.8724998991898633 -0.43821448112286693 12.303370976761148 1.2936440482611309 0.20578648931220594 0.4213900617496178 2.0000249878253857 -0.1743986396233958 -13.941377353921489 0.20134621589357393 -3.350022284550835 1.4008360662793327 -14.382540758742943 72.33936368079051 25.33603883663229 3.8089094679192947 35.645543597955836 4.5053052374398295 92.96974181378826 21.244896609504014 -0.3623879122374433 -3.724909517384816 4.549328878448304 -0.11130634535197216 -1.5885603701029727 -0.016830160632503772 0.022154860059613174 -56.23144329508788 0.035424148495787164 -0.01775520301651878 -56.20712066873646 -38.80580046847288 -0.04365689048677397 -0.02098681923849991 -0.0032746806930505825 -0.023666353129514036 0.04568369772679433 0.0127547015298323 -0.029388734644612453 -0.025439071201215975 -36.70499319086415 -0.047852669830936015 -0.01282789631719929 -0.022552083105736243 -0.03595264801832536 -0.04737170486489617 -0.013563614261761335 0.005030472432066273 0.0006458199938978903 -19.766706173929308 0.04503868852200141 0.01123943085778758 0.023590890823747324 -0.043509806403354875 0.009601137927398052 0.0140778083946495 0.0425157090895876 0.016244306079797034 24.058338580871382 -0.02575271402756314 -0.01919157251222371 28.87767288708243 0.000275897001454183 -0.04127609666428853 28.85271886905636 0.019233382928101336 0.0325473349661279 6.011996569694611 1.4150223043165016 12.509664869490381 -72.98766363437731 25.55712071398925 -7.985871601223282 -86.45404734246654 8.95394002036973 -103.07145112514536 -17.47103678019425 -0.07967852219644098 -0.14867031084846946 -0.4827202242073657 0.0942391677207353 -8.16774763103778 0.04726340490502795 -0.028080536735046624 44.51880192678481 0.04101016853470187 0.017823224409494805 44.60841663193126 12.474058622810546 0.02741950353769863 -0.037633566900127056 0.004645779245268976 0.03969337793945115 -0.008779763626362801 -0.025422359332728506 -0.004720485616432006 -0.0035301600453891465 11.115454109409885 -0.001954119099842446 -0.01567645155007559 0.011110765238253108 0.025661803542334927 0.04179841281451508 -0.006680186499127532 0.021691222724340074 -0.04412159537595496 4.792970814062615 -0.006480794597291626 0.029299864176197826 0.03382680539273343 0.03772201607568815 -0.017923735549321515 0.004044474999865236 0.04181958124533014 0.009206688448834596 -5.5736064998621995 -0.0339539427401798 0.03891381100118484 -6.733401457379726 0.042207100324285485 0.04945234588606015 -6.755354067135332 -0.024510199574904187 0.020880369683598646 0.043537679006388365 0.010376589722674743 0.007545086167644225 8.026566571626699 3.50744496390462 -19.17832586508982 0.024603784352605785 10.413670182036164 0.018131420367089045 -5.6246122876106845 -15.707145918726273 3.157307824122699 -0.007985395787405699 -0.02627534748452341 0.03358446525426329 0.006737949549567151 4.704393554552506 0.013001187404091482 12.423397035760406 -8.259858914859821 6.846915990699388 -0.006033166278053268 46.37604734472326 -0.04260249870525374 -4.280109356609701 -14.72768356996366 -3.8473290922268464 0.025098263385705612 -0.03680476342793785 0.028728606356462284 0.03543609912854911 -10.759404491860272 -0.0412763892486335 
-0.010742667409937776 -0.012161331713978804 -0.04460385834446759 -0.016022599019051675 -0.02217561502102495 0.049247849845043955 -3.254277781450531 -0.5600599244931657 -0.8470432796421845 -0.9573419395843744 3.5697539146376847 0.35168198358424263 -1.2145880197143972 -1.9860037388647995 -1.4691308206264695 -0.09428505473367542 0.3293210853865497 -0.8480594315684326 -0.401893194637469 12.490754405473997 1.388706223721229 0.16347973317572348 0.4931007041989293 2.05178463951778 -0.2181906457033595 -13.87530971432211 0.18722089631233588 -3.357589381698507 1.4316967627353294 -14.599517343042939 71.99746199104322 25.66616906933361 3.436318081648916 33.66183767295279 4.128908099709207 92.85174063177604 20.5649492060756 -0.28888426050679067 -3.8922486905332225 4.5676314691184805 -0.15380462529864455 -1.548001496444639 -0.0015212277336971148 -0.04156499163268732 -56.269546918691496 -0.024712648947047746 -0.04131157325221855 -56.22915561208189 -38.798113048979225 -0.04748637744795226 -0.015211995315660061 0.04373752303411049 -0.021178931182105346 0.01980948451353276 0.04568821386575314 0.00994494512089217 0.042902523712251596 -36.68996817381059 0.046212224488689585 -0.03269252203594749 0.04742358188164028 0.01927082670726228 0.026922139893552747 0.011678522441496466 0.019869872721474755 0.02730820970914588 -19.763837940951614 0.007437371221576863 -0.03595349013421007 -0.02073622027975908 0.0214398460486799 -0.02912995998522465 -0.024565000445530127 -0.03436565958465906 -0.00989010345950239 24.070834546327752 0.03159788087417687 -0.008316121845382397 28.891137092332603 -0.03466789016942836 0.002759153839363919 28.817646830059143 -0.041768283696405076 -0.04461356000201486 5.9590238793233485 1.370958618101036 12.716546207804228 -72.53538464996811 25.709120803988803 -7.600832140292888 -77.64378968210585 9.853230511228206 -97.53682945134227 -15.588946205688421 0.10463028636814442 -0.21619888999191889 -0.4892933761596733 0.06587933945625614 -8.153534463403988 -0.010093114955419183 -0.030314477810725982 44.56367775765173 0.009662073859445317 -0.034661523544457944 44.548537376838254 12.494462782843105 0.019554781143359064 -0.042968947279548385 0.04054487014898114 -0.03196843255020197 0.0231213664022954 0.04004479818698217 -0.007444876232670488 0.028521139391602432 11.104586666968345 -0.006276397635590465 0.03504890022442662 -0.04211109268612297 0.04962950851793744 -0.02813051985236685 0.04366000358101019 0.0050283196560677226 0.002646191079392799 4.8039702349573945 0.001737353491089804 0.029366185763281795 0.016459211408922553 0.03908850448575146 -0.040286275269564756 0.037058885250336085 0.003153139557873451 -0.04077202966528915 -5.625574528748438 -0.014956009582965309 -0.0005095833382043002 -6.750313378667721 -0.016615382637114807 -0.03865043422566178 -6.716453870624177 -0.03373462802097443 0.028319815660854085 -0.023359881386683524 0.01159922171628659 0.023395142106808695 8.079630675891595 3.536597701757559 -19.21550430145092 0.023730304842168298 10.405163434270838 0.044760433038080756 -5.651085963859529 -15.668468023132899 3.235683958033775 0.02461858143322582 0.022122906222013503 0.025009229830219293 -0.014657114951283417 4.714387772135004 -0.019169967700039175 12.433141090521705 -8.243305028292276 6.900003841713033 -0.04268496740129379 46.378562771099155 -0.012349879609021692 -4.354339407867914 -14.73063861465147 -3.7898031922628492 -0.025988824561923248 -0.007407226640980848 -0.010083049373289188 -0.03391204587623362 -10.746406318154143 0.03426583458738625 
